<?xml version="1.0" encoding="UTF-8" standalone="no"?>
<!-- Created with Inkscape (http://www.inkscape.org/) -->
<svg
   xmlns:dc="http://purl.org/dc/elements/1.1/"
   xmlns:cc="http://creativecommons.org/ns#"
   xmlns:rdf="http://www.w3.org/1999/02/22-rdf-syntax-ns#"
   xmlns:svg="http://www.w3.org/2000/svg"
   xmlns="http://www.w3.org/2000/svg"
   xmlns:sodipodi="http://sodipodi.sourceforge.net/DTD/sodipodi-0.dtd"
   xmlns:inkscape="http://www.inkscape.org/namespaces/inkscape"
   width="960"
   height="100"
   id="svg2"
   sodipodi:version="0.32"
   inkscape:version="0.46"
   version="1.0"
   sodipodi:docname="bottom.svg"
   inkscape:output_extension="org.inkscape.output.svg.inkscape">
  <defs
     id="defs4">
    <inkscape:perspective
       sodipodi:type="inkscape:persp3d"
       inkscape:vp_x="0 : 526.18109 : 1"
       inkscape:vp_y="0 : 1000 : 0"
       inkscape:vp_z="744.09448 : 526.18109 : 1"
       inkscape:persp3d-origin="372.04724 : 350.78739 : 1"
       id="perspective10" />
  </defs>
  <sodipodi:namedview
     id="base"
     pagecolor="#ffffff"
     bordercolor="#666666"
     borderopacity="1.0"
     gridtolerance="10000"
     guidetolerance="10"
     objecttolerance="10"
     inkscape:pageopacity="0.0"
     inkscape:pageshadow="2"
     inkscape:zoom="1.4"
     inkscape:cx="625.74156"
     inkscape:cy="10.709961"
     inkscape:document-units="px"
     inkscape:current-layer="layer1"
     showgrid="true"
     showguides="true"
     inkscape:guide-bbox="true"
     inkscape:snap-global="false"
     inkscape:window-width="1280"
     inkscape:window-height="963"
     inkscape:window-x="0"
     inkscape:window-y="33">
    <inkscape:grid
       type="xygrid"
       id="grid2383"
       visible="true"
       enabled="true"
       dotted="false"
       empspacing="1"
       spacingx="1px" />
  </sodipodi:namedview>
  <metadata
     id="metadata7">
    <rdf:RDF>
      <cc:Work
         rdf:about="">
        <dc:format>image/svg+xml</dc:format>
        <dc:type
           rdf:resource="http://purl.org/dc/dcmitype/StillImage" />
      </cc:Work>
    </rdf:RDF>
  </metadata>
  <g
     inkscape:label="Layer 1"
     inkscape:groupmode="layer"
     id="layer1"
     transform="translate(-50,-185.68443)">
    <rect
       style="opacity:1;fill:#cfff9b;fill-opacity:1;fill-rule:nonzero;stroke:none;stroke-width:3;stroke-miterlimit:4;stroke-dasharray:none;stroke-dashoffset:0;stroke-opacity:1"
       id="rect3183"
       width="660"
       height="10"
       x="59.213924"
       y="545.28394"
       ry="2.0203052" />
    <path
       sodipodi:type="spiral"
       style="fill:none;fill-rule:evenodd;stroke:#009600;stroke-width:3;stroke-linecap:butt;stroke-linejoin:miter;stroke-miterlimit:4;stroke-dasharray:none;stroke-opacity:1"
       id="path3159"
       sodipodi:cx="115.15739"
       sodipodi:cy="387.68179"
       sodipodi:expansion="0.77999997"
       sodipodi:revolution="2.01"
       sodipodi:radius="19.404396"
       sodipodi:argument="-11.733147"
       sodipodi:t0="0.059999999"
       d="M 115.11376,389.84337 C 113.26271,391.67339 110.55885,389.46478 109.96861,387.57707 C 108.83715,383.95845 111.86766,380.54179 115.31395,379.92447 C 120.28519,379.03398 124.67386,383.0943 125.25869,387.88566 C 126.01626,394.09229 120.94089,399.43613 114.90915,399.98137 C 107.53767,400.64773 101.27186,394.59397 100.76578,387.39133 C 100.16961,378.90639 107.16675,371.74974 115.4884,371.28096 C 125.04631,370.74254 133.06661,378.65249 133.50011,388.052 C 133.75697,393.62135 131.3998,399.09856 127.27921,402.83409"
       transform="matrix(0.5834553,0,0,0.5184779,9.5908483,342.83568)" />
    <path
       style="fill:#009600;fill-opacity:1;fill-rule:evenodd;stroke:none;stroke-width:1px;stroke-linecap:butt;stroke-linejoin:miter;stroke-opacity:1"
       d="M 63.411533,523.91221 L 69.307873,534.34745 L 70.859539,532.75563 L 66.514874,521.61292 L 63.411533,523.91221 z"
       id="path3173" />
    <path
       style="fill:#009600;fill-opacity:1;fill-rule:evenodd;stroke:none;stroke-width:1px;stroke-linecap:butt;stroke-linejoin:miter;stroke-opacity:1"
       d="M 74.738714,518.78301 L 76.755895,531.51756 L 78.928221,531.51756 L 78.462723,518.60615 L 74.738714,518.78301 z"
       id="path3177" />
    <path
       style="fill:#009600;fill-opacity:1;fill-rule:evenodd;stroke:none;stroke-width:1px;stroke-linecap:butt;stroke-linejoin:miter;stroke-opacity:1"
       d="M 87.24517,520.90544 L 83.676336,532.57877 L 85.228011,534.34745 L 89.727849,523.73535 L 87.24517,520.90544 z"
       id="path3179" />
    <path
       sodipodi:type="arc"
       style="opacity:1;fill:#ffa000;fill-opacity:1;fill-rule:nonzero;stroke:none;stroke-width:3;stroke-miterlimit:4;stroke-dasharray:none;stroke-dashoffset:0;stroke-opacity:1"
       id="path3971"
       sodipodi:cx="120"
       sodipodi:cy="322.36218"
       sodipodi:rx="10"
       sodipodi:ry="10"
       d="M 130,322.36218 A 10,10 0 1 1 110,322.36218 A 10,10 0 1 1 130,322.36218 z"
       transform="translate(-53.785682,174.30741)" />
    <path
       sodipodi:type="arc"
       style="opacity:1;fill:#ffa000;fill-opacity:1;fill-rule:nonzero;stroke:none;stroke-width:3;stroke-miterlimit:4;stroke-dasharray:none;stroke-dashoffset:0;stroke-opacity:1"
       id="path3973"
       sodipodi:cx="120"
       sodipodi:cy="322.36218"
       sodipodi:rx="10"
       sodipodi:ry="10"
       d="M 130,322.36218 A 10,10 0 1 1 110,322.36218 A 10,10 0 1 1 130,322.36218 z"
       transform="translate(-29.785682,174.30741)" />
    <path
       sodipodi:type="arc"
       style="opacity:1;fill:#ffa000;fill-opacity:1;fill-rule:nonzero;stroke:none;stroke-width:3;stroke-miterlimit:4;stroke-dasharray:none;stroke-dashoffset:0;stroke-opacity:1"
       id="path3975"
       sodipodi:cx="120"
       sodipodi:cy="322.36218"
       sodipodi:rx="10"
       sodipodi:ry="10"
       d="M 130,322.36218 A 10,10 0 1 1 110,322.36218 A 10,10 0 1 1 130,322.36218 z"
       transform="translate(-5.7856822,174.30741)" />
    <path
       sodipodi:type="arc"
       style="opacity:1;fill:#ffd200;fill-opacity:1;fill-rule:nonzero;stroke:none;stroke-width:3;stroke-miterlimit:4;stroke-dasharray:none;stroke-dashoffset:0;stroke-opacity:1"
       id="path3977"
       sodipodi:cx="120"
       sodipodi:cy="322.36218"
       sodipodi:rx="10"
       sodipodi:ry="10"
       d="M 130,322.36218 A 10,10 0 1 1 110,322.36218 A 10,10 0 1 1 130,322.36218 z"
       transform="translate(17.284968,174.53602)" />
    <path
       sodipodi:type="arc"
       style="opacity:1;fill:#ffa000;fill-opacity:1;fill-rule:nonzero;stroke:none;stroke-width:3;stroke-miterlimit:4;stroke-dasharray:none;stroke-dashoffset:0;stroke-opacity:1"
       id="path3979"
       sodipodi:cx="120"
       sodipodi:cy="322.36218"
       sodipodi:rx="10"
       sodipodi:ry="10"
       d="M 130,322.36218 A 10,10 0 1 1 110,322.36218 A 10,10 0 1 1 130,322.36218 z"
       transform="translate(41.284968,174.53602)" />
    <path
       sodipodi:type="arc"
       style="opacity:1;fill:#ffd200;fill-opacity:1;fill-rule:nonzero;stroke:none;stroke-width:3;stroke-miterlimit:4;stroke-dasharray:none;stroke-dashoffset:0;stroke-opacity:1"
       id="path3981"
       sodipodi:cx="120"
       sodipodi:cy="322.36218"
       sodipodi:rx="10"
       sodipodi:ry="10"
       d="M 130,322.36218 A 10,10 0 1 1 110,322.36218 A 10,10 0 1 1 130,322.36218 z"
       transform="translate(65.284968,174.53602)" />
    <path
       sodipodi:type="arc"
       style="opacity:1;fill:#ffd200;fill-opacity:1;fill-rule:nonzero;stroke:none;stroke-width:3;stroke-miterlimit:4;stroke-dasharray:none;stroke-dashoffset:0;stroke-opacity:1"
       id="path3983"
       sodipodi:cx="120"
       sodipodi:cy="322.36218"
       sodipodi:rx="10"
       sodipodi:ry="10"
       d="M 130,322.36218 A 10,10 0 1 1 110,322.36218 A 10,10 0 1 1 130,322.36218 z"
       transform="translate(89.284968,174.53602)" />
    <path
       sodipodi:type="arc"
       style="opacity:1;fill:#ffa000;fill-opacity:1;fill-rule:nonzero;stroke:none;stroke-width:3;stroke-miterlimit:4;stroke-dasharray:none;stroke-dashoffset:0;stroke-opacity:1"
       id="path3985"
       sodipodi:cx="120"
       sodipodi:cy="322.36218"
       sodipodi:rx="10"
       sodipodi:ry="10"
       d="M 130,322.36218 A 10,10 0 1 1 110,322.36218 A 10,10 0 1 1 130,322.36218 z"
       transform="translate(113.28497,174.53602)" />
    <path
       sodipodi:type="arc"
       style="opacity:1;fill:#ffd200;fill-opacity:1;fill-rule:nonzero;stroke:none;stroke-width:3;stroke-miterlimit:4;stroke-dasharray:none;stroke-dashoffset:0;stroke-opacity:1"
       id="path3987"
       sodipodi:cx="120"
       sodipodi:cy="322.36218"
       sodipodi:rx="10"
       sodipodi:ry="10"
       d="M 130,322.36218 A 10,10 0 1 1 110,322.36218 A 10,10 0 1 1 130,322.36218 z"
       transform="translate(137.28497,174.53602)" />
    <path
       sodipodi:type="arc"
       style="opacity:1;fill:#ffd200;fill-opacity:1;fill-rule:nonzero;stroke:none;stroke-width:3;stroke-miterlimit:4;stroke-dasharray:none;stroke-dashoffset:0;stroke-opacity:1"
       id="path3989"
       sodipodi:cx="120"
       sodipodi:cy="322.36218"
       sodipodi:rx="10"
       sodipodi:ry="10"
       d="M 130,322.36218 A 10,10 0 1 1 110,322.36218 A 10,10 0 1 1 130,322.36218 z"
       transform="matrix(1,0,0,-1,160.21354,819.68896)" />
    <path
       sodipodi:type="arc"
       style="opacity:1;fill:#ffd200;fill-opacity:1;fill-rule:nonzero;stroke:none;stroke-width:3;stroke-miterlimit:4;stroke-dasharray:none;stroke-dashoffset:0;stroke-opacity:1"
       id="path3991"
       sodipodi:cx="120"
       sodipodi:cy="322.36218"
       sodipodi:rx="10"
       sodipodi:ry="10"
       d="M 130,322.36218 A 10,10 0 1 1 110,322.36218 A 10,10 0 1 1 130,322.36218 z"
       transform="translate(184.21432,174.30741)" />
    <path
       sodipodi:type="arc"
       style="opacity:1;fill:#ffd200;fill-opacity:1;fill-rule:nonzero;stroke:none;stroke-width:3;stroke-miterlimit:4;stroke-dasharray:none;stroke-dashoffset:0;stroke-opacity:1"
       id="path3993"
       sodipodi:cx="120"
       sodipodi:cy="322.36218"
       sodipodi:rx="10"
       sodipodi:ry="10"
       d="M 130,322.36218 A 10,10 0 1 1 110,322.36218 A 10,10 0 1 1 130,322.36218 z"
       transform="translate(208.21432,174.30741)" />
    <path
       sodipodi:type="arc"
       style="opacity:1;fill:#ffa000;fill-opacity:1;fill-rule:nonzero;stroke:none;stroke-width:3;stroke-miterlimit:4;stroke-dasharray:none;stroke-dashoffset:0;stroke-opacity:1"
       id="path3995"
       sodipodi:cx="120"
       sodipodi:cy="322.36218"
       sodipodi:rx="10"
       sodipodi:ry="10"
       d="M 130,322.36218 A 10,10 0 1 1 110,322.36218 A 10,10 0 1 1 130,322.36218 z"
       transform="translate(232.21432,174.30741)" />
    <path
       sodipodi:type="arc"
       style="opacity:1;fill:#ffd200;fill-opacity:1;fill-rule:nonzero;stroke:none;stroke-width:3;stroke-miterlimit:4;stroke-dasharray:none;stroke-dashoffset:0;stroke-opacity:1"
       id="path3997"
       sodipodi:cx="120"
       sodipodi:cy="322.36218"
       sodipodi:rx="10"
       sodipodi:ry="10"
       d="M 130,322.36218 A 10,10 0 1 1 110,322.36218 A 10,10 0 1 1 130,322.36218 z"
       transform="translate(255.28497,174.53602)" />
    <path
       sodipodi:type="arc"
       style="opacity:1;fill:#ffd200;fill-opacity:1;fill-rule:nonzero;stroke:none;stroke-width:3;stroke-miterlimit:4;stroke-dasharray:none;stroke-dashoffset:0;stroke-opacity:1"
       id="path3999"
       sodipodi:cx="120"
       sodipodi:cy="322.36218"
       sodipodi:rx="10"
       sodipodi:ry="10"
       d="M 130,322.36218 A 10,10 0 1 1 110,322.36218 A 10,10 0 1 1 130,322.36218 z"
       transform="translate(279.28497,174.53602)" />
    <path
       sodipodi:type="arc"
       style="opacity:1;fill:#ffd200;fill-opacity:1;fill-rule:nonzero;stroke:none;stroke-width:3;stroke-miterlimit:4;stroke-dasharray:none;stroke-dashoffset:0;stroke-opacity:1"
       id="path4001"
       sodipodi:cx="120"
       sodipodi:cy="322.36218"
       sodipodi:rx="10"
       sodipodi:ry="10"
       d="M 130,322.36218 A 10,10 0 1 1 110,322.36218 A 10,10 0 1 1 130,322.36218 z"
       transform="translate(303.28497,174.53602)" />
    <path
       sodipodi:type="arc"
       style="opacity:1;fill:#ffd200;fill-opacity:1;fill-rule:nonzero;stroke:none;stroke-width:3;stroke-miterlimit:4;stroke-dasharray:none;stroke-dashoffset:0;stroke-opacity:1"
       id="path4003"
       sodipodi:cx="120"
       sodipodi:cy="322.36218"
       sodipodi:rx="10"
       sodipodi:ry="10"
       d="M 130,322.36218 A 10,10 0 1 1 110,322.36218 A 10,10 0 1 1 130,322.36218 z"
       transform="translate(327.28497,174.53602)" />
    <path
       sodipodi:type="arc"
       style="opacity:1;fill:#ffd200;fill-opacity:1;fill-rule:nonzero;stroke:none;stroke-width:3;stroke-miterlimit:4;stroke-dasharray:none;stroke-dashoffset:0;stroke-opacity:1"
       id="path4005"
       sodipodi:cx="120"
       sodipodi:cy="322.36218"
       sodipodi:rx="10"
       sodipodi:ry="10"
       d="M 130,322.36218 A 10,10 0 1 1 110,322.36218 A 10,10 0 1 1 130,322.36218 z"
       transform="translate(351.28497,174.53602)" />
    <path
       sodipodi:type="arc"
       style="opacity:1;fill:#ffd200;fill-opacity:1;fill-rule:nonzero;stroke:none;stroke-width:3;stroke-miterlimit:4;stroke-dasharray:none;stroke-dashoffset:0;stroke-opacity:1"
       id="path4007"
       sodipodi:cx="120"
       sodipodi:cy="322.36218"
       sodipodi:rx="10"
       sodipodi:ry="10"
       d="M 130,322.36218 A 10,10 0 1 1 110,322.36218 A 10,10 0 1 1 130,322.36218 z"
       transform="translate(375.28497,174.53602)" />
    <path
       sodipodi:type="arc"
       style="opacity:1;fill:#ffd200;fill-opacity:1;fill-rule:nonzero;stroke:none;stroke-width:3;stroke-miterlimit:4;stroke-dasharray:none;stroke-dashoffset:0;stroke-opacity:1"
       id="path4009"
       sodipodi:cx="120"
       sodipodi:cy="322.36218"
       sodipodi:rx="10"
       sodipodi:ry="10"
       d="M 130,322.36218 A 10,10 0 1 1 110,322.36218 A 10,10 0 1 1 130,322.36218 z"
       transform="matrix(1,0,0,-1,398.21354,819.68896)" />
    <path
       sodipodi:type="arc"
       style="opacity:1;fill:#ffa000;fill-opacity:1;fill-rule:nonzero;stroke:none;stroke-width:3;stroke-miterlimit:4;stroke-dasharray:none;stroke-dashoffset:0;stroke-opacity:1"
       id="path4011"
       sodipodi:cx="120"
       sodipodi:cy="322.36218"
       sodipodi:rx="10"
       sodipodi:ry="10"
       d="M 130,322.36218 A 10,10 0 1 1 110,322.36218 A 10,10 0 1 1 130,322.36218 z"
       transform="translate(421.50003,175.02169)" />
    <path
       sodipodi:type="arc"
       style="opacity:1;fill:#ffd200;fill-opacity:1;fill-rule:nonzero;stroke:none;stroke-width:3;stroke-miterlimit:4;stroke-dasharray:none;stroke-dashoffset:0;stroke-opacity:1"
       id="path4013"
       sodipodi:cx="120"
       sodipodi:cy="322.36218"
       sodipodi:rx="10"
       sodipodi:ry="10"
       d="M 130,322.36218 A 10,10 0 1 1 110,322.36218 A 10,10 0 1 1 130,322.36218 z"
       transform="translate(445.50003,175.02169)" />
    <path
       sodipodi:type="arc"
       style="opacity:1;fill:#ffd200;fill-opacity:1;fill-rule:nonzero;stroke:none;stroke-width:3;stroke-miterlimit:4;stroke-dasharray:none;stroke-dashoffset:0;stroke-opacity:1"
       id="path4015"
       sodipodi:cx="120"
       sodipodi:cy="322.36218"
       sodipodi:rx="10"
       sodipodi:ry="10"
       d="M 130,322.36218 A 10,10 0 1 1 110,322.36218 A 10,10 0 1 1 130,322.36218 z"
       transform="translate(469.50003,175.02169)" />
    <path
       sodipodi:type="arc"
       style="opacity:1;fill:#ffd200;fill-opacity:1;fill-rule:nonzero;stroke:none;stroke-width:3;stroke-miterlimit:4;stroke-dasharray:none;stroke-dashoffset:0;stroke-opacity:1"
       id="path4017"
       sodipodi:cx="120"
       sodipodi:cy="322.36218"
       sodipodi:rx="10"
       sodipodi:ry="10"
       d="M 130,322.36218 A 10,10 0 1 1 110,322.36218 A 10,10 0 1 1 130,322.36218 z"
       transform="translate(492.57068,175.25031)" />
    <path
       sodipodi:type="arc"
       style="opacity:1;fill:#ffd200;fill-opacity:1;fill-rule:nonzero;stroke:none;stroke-width:3;stroke-miterlimit:4;stroke-dasharray:none;stroke-dashoffset:0;stroke-opacity:1"
       id="path4019"
       sodipodi:cx="120"
       sodipodi:cy="322.36218"
       sodipodi:rx="10"
       sodipodi:ry="10"
       d="M 130,322.36218 A 10,10 0 1 1 110,322.36218 A 10,10 0 1 1 130,322.36218 z"
       transform="translate(516.57068,175.25031)" />
    <path
       sodipodi:type="arc"
       style="opacity:1;fill:#ffd200;fill-opacity:1;fill-rule:nonzero;stroke:none;stroke-width:3;stroke-miterlimit:4;stroke-dasharray:none;stroke-dashoffset:0;stroke-opacity:1"
       id="path4021"
       sodipodi:cx="120"
       sodipodi:cy="322.36218"
       sodipodi:rx="10"
       sodipodi:ry="10"
       d="M 130,322.36218 A 10,10 0 1 1 110,322.36218 A 10,10 0 1 1 130,322.36218 z"
       transform="translate(540.57068,175.25031)" />
    <path
       sodipodi:type="arc"
       style="opacity:1;fill:#ffd200;fill-opacity:1;fill-rule:nonzero;stroke:none;stroke-width:3;stroke-miterlimit:4;stroke-dasharray:none;stroke-dashoffset:0;stroke-opacity:1"
       id="path4023"
       sodipodi:cx="120"
       sodipodi:cy="322.36218"
       sodipodi:rx="10"
       sodipodi:ry="10"
       d="M 130,322.36218 A 10,10 0 1 1 110,322.36218 A 10,10 0 1 1 130,322.36218 z"
       transform="translate(564.57068,175.25031)" />
    <path
       sodipodi:type="arc"
       style="opacity:1;fill:#ffd200;fill-opacity:1;fill-rule:nonzero;stroke:none;stroke-width:3;stroke-miterlimit:4;stroke-dasharray:none;stroke-dashoffset:0;stroke-opacity:1"
       id="path4025"
       sodipodi:cx="120"
       sodipodi:cy="322.36218"
       sodipodi:rx="10"
       sodipodi:ry="10"
       d="M 130,322.36218 A 10,10 0 1 1 110,322.36218 A 10,10 0 1 1 130,322.36218 z"
       transform="translate(588.57068,175.25031)" />
    <text
       xml:space="preserve"
       style="font-size:48px;font-style:normal;font-variant:normal;font-weight:bold;font-stretch:normal;text-align:start;line-height:100%;writing-mode:lr-tb;text-anchor:start;fill:#000000;fill-opacity:1;stroke:none;stroke-width:1px;stroke-linecap:butt;stroke-linejoin:miter;stroke-opacity:1;font-family:'IPA UIゴシック';-inkscape-font-specification:'IPA UIゴシック Bold'"
       x="83.499641"
       y="538.71246"
       id="text4031"
       sodipodi:linespacing="100%"><tspan
         sodipodi:role="line"
         id="tspan4041"
         x="83.499641"
         y="538.71246">原</tspan></text>
    <text
       xml:space="preserve"
       style="font-size:48px;font-style:normal;font-variant:normal;font-weight:bold;font-stretch:normal;text-align:start;line-height:100%;writing-mode:lr-tb;text-anchor:start;fill:#000000;fill-opacity:1;stroke:none;stroke-width:1px;stroke-linecap:butt;stroke-linejoin:miter;stroke-opacity:1;font-family:'IPA UIゴシック';-inkscape-font-specification:'IPA UIゴシック Bold'"
       x="145.14534"
       y="538.12848"
       id="text4043"
       sodipodi:linespacing="100%"><tspan
         sodipodi:role="line"
         id="tspan4045"
         x="145.14534"
         y="538.12848">健太朗</tspan></text>
    <text
       xml:space="preserve"
       style="font-size:48px;font-style:normal;font-variant:normal;font-weight:normal;font-stretch:normal;text-align:start;line-height:100%;writing-mode:lr-tb;text-anchor:start;fill:#000000;fill-opacity:1;stroke:none;stroke-width:1px;stroke-linecap:butt;stroke-linejoin:miter;stroke-opacity:1;font-family:DejaVu LGC Sans;-inkscape-font-specification:DejaVu LGC Sans"
       x="314.57394"
       y="606.12848"
       id="text4047"
       sodipodi:linespacing="100%"><tspan
         sodipodi:role="line"
         id="tspan4055"
         x="314.57394"
         y="606.12848">(Kentarou Hara)</tspan></text>
    <rect
       style="opacity:1;fill:#cfff9b;fill-opacity:1;fill-rule:nonzero;stroke:#009600;stroke-width:2;stroke-miterlimit:4;stroke-dasharray:none;stroke-dashoffset:0;stroke-opacity:1"
       id="rect4057"
       width="10.714286"
       height="10.714286"
       x="89.213928"
       y="575.28394"
       ry="0" />
    <rect
       style="opacity:1;fill:none;fill-opacity:1;fill-rule:nonzero;stroke:#ffd200;stroke-width:10;stroke-miterlimit:4;stroke-dasharray:none;stroke-dashoffset:0;stroke-opacity:1"
       id="rect3792"
       width="931.56787"
       height="200.25987"
       x="64.216133"
       y="50.483047"
       ry="45.844219" />
    <rect
       style="opacity:1;fill:none;fill-opacity:1;fill-rule:nonzero;stroke:#ff9600;stroke-width:10;stroke-miterlimit:4;stroke-dasharray:none;stroke-dashoffset:0;stroke-opacity:1"
       id="rect3157"
       width="950.13916"
       height="219.54559"
       x="55.390953"
       y="41.10379"
       ry="55.726009" />
    <text
       xml:space="preserve"
       style="font-size:39.91719437px;font-style:oblique;font-variant:normal;font-weight:bold;font-stretch:normal;text-align:start;line-height:100%;writing-mode:lr-tb;text-anchor:start;fill:#969696;fill-opacity:1;stroke:none;stroke-width:1px;stroke-linecap:butt;stroke-linejoin:miter;stroke-opacity:1;font-family:URW Gothic L;-inkscape-font-specification:URW Gothic L Semi-Bold Oblique"
       x="576.53223"
       y="235.44867"
       id="text3804"
       sodipodi:linespacing="100%"><tspan
         sodipodi:role="line"
         id="tspan3806"
         x="576.53223"
         y="235.44867">http://haraken.info/</tspan></text>
    <text
       xml:space="preserve"
       style="font-size:39.91719437px;font-style:oblique;font-variant:normal;font-weight:bold;font-stretch:normal;text-align:start;line-height:100%;writing-mode:lr-tb;text-anchor:start;fill:#ff9600;fill-opacity:1;stroke:none;stroke-width:1px;stroke-linecap:butt;stroke-linejoin:miter;stroke-opacity:1;font-family:URW Gothic L;-inkscape-font-specification:URW Gothic L Semi-Bold Oblique"
       x="575.00195"
       y="233.14877"
       id="text3796"
       sodipodi:linespacing="100%"><tspan
         sodipodi:role="line"
         id="tspan3800"
         x="575.00195"
         y="233.14877">http://haraken.info/</tspan></text>
  </g>
</svg>
